<svg width="150" height="342" viewBox="0 0 150 342" fill="none" xmlns="http://www.w3.org/2000/svg">
<path d="M111.998 335H98.3535V332.293L104.793 325.43C105.677 324.464 106.329 323.62 106.748 322.9C107.176 322.18 107.391 321.497 107.391 320.85C107.391 319.965 107.167 319.273 106.721 318.771C106.274 318.261 105.636 318.006 104.807 318.006C103.913 318.006 103.207 318.316 102.688 318.936C102.177 319.546 101.922 320.353 101.922 321.355H97.957C97.957 320.143 98.2441 319.036 98.8184 318.033C99.4017 317.031 100.222 316.247 101.279 315.682C102.337 315.107 103.535 314.82 104.875 314.82C106.926 314.82 108.516 315.312 109.646 316.297C110.786 317.281 111.355 318.671 111.355 320.467C111.355 321.451 111.1 322.454 110.59 323.475C110.079 324.495 109.204 325.685 107.965 327.043L103.439 331.814H111.998V335ZM129.726 335H116.082V332.293L122.521 325.43C123.405 324.464 124.057 323.62 124.476 322.9C124.905 322.18 125.119 321.497 125.119 320.85C125.119 319.965 124.895 319.273 124.449 318.771C124.002 318.261 123.364 318.006 122.535 318.006C121.642 318.006 120.935 318.316 120.416 318.936C119.905 319.546 119.65 320.353 119.65 321.355H115.685C115.685 320.143 115.972 319.036 116.546 318.033C117.13 317.031 117.95 316.247 119.007 315.682C120.065 315.107 121.263 314.82 122.603 314.82C124.654 314.82 126.244 315.312 127.375 316.297C128.514 317.281 129.084 318.671 129.084 320.467C129.084 321.451 128.828 322.454 128.318 323.475C127.808 324.495 126.933 325.685 125.693 327.043L121.168 331.814H129.726V335ZM147.208 326.77C147.208 329.522 146.639 331.628 145.499 333.086C144.36 334.544 142.692 335.273 140.495 335.273C138.326 335.273 136.667 334.558 135.519 333.127C134.37 331.696 133.782 329.645 133.755 326.975V323.311C133.755 320.531 134.329 318.421 135.478 316.98C136.635 315.54 138.299 314.82 140.468 314.82C142.637 314.82 144.296 315.536 145.445 316.967C146.593 318.389 147.181 320.435 147.208 323.105V326.77ZM143.257 322.75C143.257 321.1 143.029 319.902 142.573 319.154C142.127 318.398 141.425 318.02 140.468 318.02C139.538 318.02 138.85 318.38 138.404 319.1C137.966 319.811 137.734 320.927 137.706 322.449V327.289C137.706 328.911 137.925 330.119 138.362 330.912C138.809 331.696 139.52 332.088 140.495 332.088C141.461 332.088 142.159 331.71 142.587 330.953C143.015 330.197 143.239 329.039 143.257 327.48V322.75Z" fill="white"/>
<path d="M16.7617 318.416H10.6641V335H6.5625V318.416H0.546875V315.094H16.7617V318.416ZM17.0445 327.467C17.0445 325.999 17.3271 324.691 17.8922 323.543C18.4573 322.395 19.2685 321.506 20.3258 320.877C21.3922 320.248 22.6272 319.934 24.0309 319.934C26.027 319.934 27.6539 320.544 28.9117 321.766C30.1786 322.987 30.885 324.646 31.0309 326.742L31.0582 327.754C31.0582 330.023 30.4247 331.846 29.1578 333.223C27.8909 334.59 26.191 335.273 24.0582 335.273C21.9254 335.273 20.221 334.59 18.9449 333.223C17.678 331.855 17.0445 329.996 17.0445 327.645V327.467ZM20.9957 327.754C20.9957 329.158 21.26 330.233 21.7887 330.98C22.3173 331.719 23.0738 332.088 24.0582 332.088C25.0152 332.088 25.7626 331.723 26.3004 330.994C26.8382 330.256 27.107 329.08 27.107 327.467C27.107 326.09 26.8382 325.024 26.3004 324.268C25.7626 323.511 25.0061 323.133 24.0309 323.133C23.0647 323.133 22.3173 323.511 21.7887 324.268C21.26 325.015 20.9957 326.177 20.9957 327.754ZM39.8723 316.57V320.207H42.4016V323.105H39.8723V330.488C39.8723 331.035 39.9771 331.427 40.1867 331.664C40.3964 331.901 40.7974 332.02 41.3898 332.02C41.8273 332.02 42.2147 331.988 42.552 331.924V334.918C41.7772 335.155 40.9797 335.273 40.1594 335.273C37.3885 335.273 35.9758 333.874 35.9211 331.076V323.105H33.7609V320.207H35.9211V316.57H39.8723ZM54.825 335C54.6427 334.645 54.5105 334.202 54.4285 333.674C53.4715 334.74 52.2273 335.273 50.6961 335.273C49.2469 335.273 48.0438 334.854 47.0867 334.016C46.1388 333.177 45.6648 332.12 45.6648 330.844C45.6648 329.276 46.2436 328.073 47.4012 327.234C48.5678 326.396 50.2495 325.972 52.4461 325.963H54.2645V325.115C54.2645 324.432 54.0867 323.885 53.7313 323.475C53.3849 323.064 52.8335 322.859 52.077 322.859C51.4116 322.859 50.8875 323.019 50.5047 323.338C50.131 323.657 49.9441 324.094 49.9441 324.65H45.993C45.993 323.794 46.2573 323.001 46.7859 322.271C47.3146 321.542 48.062 320.973 49.0281 320.562C49.9943 320.143 51.0789 319.934 52.282 319.934C54.1049 319.934 55.5496 320.394 56.616 321.314C57.6915 322.226 58.2293 323.511 58.2293 325.17V331.582C58.2384 332.986 58.4344 334.048 58.8172 334.768V335H54.825ZM51.5574 332.252C52.1408 332.252 52.6785 332.124 53.1707 331.869C53.6629 331.605 54.0275 331.254 54.2645 330.816V328.273H52.7879C50.81 328.273 49.7573 328.957 49.6297 330.324L49.616 330.557C49.616 331.049 49.7892 331.454 50.1355 331.773C50.4819 332.092 50.9559 332.252 51.5574 332.252ZM67.0844 335H63.1195V314H67.0844V335ZM91.3297 327.945H86.7496C86.7952 329.285 87.1507 330.292 87.816 330.967C88.4905 331.641 89.5341 331.979 90.9469 331.979C91.9039 331.979 92.7698 331.837 93.5445 331.555L94.0367 334.863C92.9065 335.128 91.7398 335.26 90.5367 335.26C88.1396 335.26 86.2392 334.617 84.8355 333.332C83.441 332.038 82.7073 330.242 82.6344 327.945H80.3238V325.867H82.6344V324.172H80.3238V322.094H82.6617C82.8167 319.797 83.6142 318.015 85.0543 316.748C86.5035 315.472 88.4221 314.834 90.8102 314.834C91.7672 314.834 92.8427 314.975 94.0367 315.258L93.5445 318.58C92.6878 318.288 91.8447 318.143 91.0152 318.143C88.4358 318.143 87.023 319.46 86.777 322.094H91.3297V324.172H86.7496V325.867H91.3297V327.945Z" fill="white"/>
<path d="M1.5 210.5H148.5V257.5H1.5V210.5Z" stroke="white" stroke-width="3"/>
<path d="M30.6875 234.828H15.0312V232.469H30.6875V234.828Z" fill="white"/>
<path d="M127.891 232.797H134.234V235.531H127.891V242.719H124.984V235.531H118.641V232.797H124.984V226.156H127.891V232.797Z" fill="white"/>
<path d="M76.3535 242H75.0645V227.906L70.8105 229.485V228.282L76.1387 226.306H76.3535V242Z" fill="white"/>
<path d="M10.8281 186.154C10.8281 185.288 10.5238 184.604 9.91504 184.103C9.30632 183.594 8.19271 183.114 6.57422 182.663C4.95573 182.205 3.77409 181.707 3.0293 181.17C1.9694 180.411 1.43945 179.415 1.43945 178.184C1.43945 176.988 1.93001 176.017 2.91113 175.272C3.89941 174.521 5.15983 174.145 6.69238 174.145C7.73079 174.145 8.6582 174.345 9.47461 174.746C10.2982 175.147 10.9355 175.706 11.3867 176.422C11.8379 177.138 12.0635 177.937 12.0635 178.817H10.7314C10.7314 177.75 10.3662 176.895 9.63574 176.25C8.90527 175.598 7.92415 175.272 6.69238 175.272C5.49642 175.272 4.54395 175.541 3.83496 176.078C3.12598 176.608 2.77148 177.303 2.77148 178.162C2.77148 178.957 3.09017 179.605 3.72754 180.106C4.36491 180.608 5.38542 181.052 6.78906 181.438C8.19271 181.818 9.25618 182.215 9.97949 182.631C10.7028 183.039 11.2471 183.53 11.6123 184.103C11.9775 184.675 12.1602 185.352 12.1602 186.133C12.1602 187.365 11.666 188.353 10.6777 189.098C9.69661 189.842 8.40039 190.215 6.78906 190.215C5.6862 190.215 4.67285 190.018 3.74902 189.624C2.83236 189.23 2.13411 188.679 1.6543 187.97C1.18164 187.261 0.945312 186.448 0.945312 185.531H2.2666C2.2666 186.634 2.67839 187.504 3.50195 188.142C4.32552 188.779 5.42122 189.098 6.78906 189.098C8.00651 189.098 8.98405 188.829 9.72168 188.292C10.4593 187.755 10.8281 187.042 10.8281 186.154ZM19.2178 190.215C18.2295 190.215 17.3343 189.971 16.5322 189.484C15.7373 188.997 15.1178 188.321 14.6738 187.454C14.2298 186.58 14.0078 185.603 14.0078 184.521V184.06C14.0078 182.942 14.2227 181.936 14.6523 181.041C15.0892 180.146 15.6943 179.444 16.4678 178.936C17.2412 178.42 18.0791 178.162 18.9814 178.162C20.3923 178.162 21.5094 178.646 22.333 179.612C23.1637 180.572 23.5791 181.886 23.5791 183.555V184.274H15.2861V184.521C15.2861 185.839 15.6621 186.938 16.4141 187.819C17.1732 188.693 18.1257 189.13 19.2715 189.13C19.959 189.13 20.5641 189.005 21.0869 188.754C21.6169 188.503 22.0967 188.102 22.5264 187.551L23.332 188.163C22.3867 189.531 21.0153 190.215 19.2178 190.215ZM18.9814 179.258C18.0146 179.258 17.1982 179.612 16.5322 180.321C15.8734 181.03 15.4723 181.983 15.3291 183.179H22.3008V183.039C22.265 181.922 21.9463 181.012 21.3447 180.311C20.7432 179.609 19.9554 179.258 18.9814 179.258ZM27.3066 178.377L27.3496 180.364C27.7865 179.648 28.3307 179.104 28.9824 178.731C29.6341 178.352 30.3538 178.162 31.1416 178.162C32.3877 178.162 33.3151 178.513 33.9238 179.215C34.5326 179.917 34.8405 180.969 34.8477 182.373V190H33.5693V182.362C33.5622 181.324 33.3402 180.55 32.9033 180.042C32.4736 179.534 31.7826 179.279 30.8301 179.279C30.0352 179.279 29.3298 179.53 28.7139 180.031C28.1051 180.525 27.654 181.195 27.3604 182.04V190H26.082V178.377H27.3066ZM39.6172 190H38.3281V178.377H39.6172V190ZM38.1025 175.015C38.1025 174.771 38.1813 174.567 38.3389 174.402C38.4964 174.23 38.7113 174.145 38.9834 174.145C39.2555 174.145 39.4704 174.23 39.6279 174.402C39.7926 174.567 39.875 174.771 39.875 175.015C39.875 175.258 39.7926 175.462 39.6279 175.627C39.4704 175.792 39.2555 175.874 38.9834 175.874C38.7113 175.874 38.4964 175.792 38.3389 175.627C38.1813 175.462 38.1025 175.258 38.1025 175.015ZM42.4102 184.017C42.4102 182.899 42.625 181.893 43.0547 180.998C43.4915 180.103 44.1038 179.408 44.8916 178.914C45.6865 178.413 46.5853 178.162 47.5879 178.162C49.1348 178.162 50.388 178.706 51.3477 179.795C52.3073 180.876 52.7871 182.312 52.7871 184.103V184.371C52.7871 185.495 52.5687 186.509 52.1318 187.411C51.7021 188.306 51.0934 188.997 50.3057 189.484C49.5179 189.971 48.6191 190.215 47.6094 190.215C46.0697 190.215 44.8164 189.674 43.8496 188.593C42.89 187.504 42.4102 186.065 42.4102 184.274V184.017ZM43.6992 184.371C43.6992 185.76 44.0573 186.903 44.7734 187.798C45.4967 188.686 46.4421 189.13 47.6094 189.13C48.7695 189.13 49.7077 188.686 50.4238 187.798C51.1471 186.903 51.5088 185.725 51.5088 184.264V184.017C51.5088 183.129 51.3441 182.316 51.0146 181.578C50.6852 180.84 50.2233 180.271 49.6289 179.87C49.0345 179.462 48.3542 179.258 47.5879 179.258C46.4421 179.258 45.5075 179.709 44.7842 180.611C44.0609 181.507 43.6992 182.681 43.6992 184.135V184.371ZM60.8223 179.473C60.5501 179.423 60.2601 179.397 59.9521 179.397C59.1501 179.397 58.4697 179.623 57.9111 180.074C57.3597 180.518 56.9658 181.166 56.7295 182.019V190H55.4512V178.377H56.708L56.7295 180.225C57.4098 178.85 58.502 178.162 60.0059 178.162C60.3639 178.162 60.6468 178.209 60.8545 178.302L60.8223 179.473ZM75.5928 174.241V175.369H75.4424C73.5732 175.369 72.1016 175.921 71.0273 177.023C69.9531 178.119 69.3587 179.645 69.2441 181.6C69.6738 181.005 70.2217 180.547 70.8877 180.225C71.5537 179.895 72.2985 179.73 73.1221 179.73C74.4971 179.73 75.5892 180.207 76.3984 181.159C77.2148 182.104 77.623 183.343 77.623 184.876C77.623 185.893 77.4333 186.81 77.0537 187.626C76.6742 188.442 76.1299 189.08 75.4209 189.538C74.7119 189.989 73.9027 190.215 72.9932 190.215C71.4964 190.215 70.279 189.674 69.3408 188.593C68.4027 187.504 67.9336 186.101 67.9336 184.382V183.093C67.9336 180.293 68.571 178.126 69.8457 176.594C71.1204 175.054 72.9287 174.27 75.2705 174.241H75.5928ZM72.918 180.837C72.1016 180.837 71.3389 181.08 70.6299 181.567C69.9281 182.047 69.459 182.66 69.2227 183.404V184.5C69.2227 185.861 69.57 186.971 70.2646 187.83C70.9665 188.689 71.876 189.119 72.9932 189.119C73.9958 189.119 74.805 188.722 75.4209 187.927C76.0439 187.132 76.3555 186.129 76.3555 184.919C76.3555 183.687 76.0439 182.699 75.4209 181.954C74.805 181.209 73.9707 180.837 72.918 180.837ZM81.082 181.986L81.8447 174.359H89.665V175.552H82.9512L82.4033 180.837C83.2412 180.264 84.2223 179.978 85.3467 179.978C86.7575 179.978 87.8818 180.436 88.7197 181.353C89.5576 182.269 89.9766 183.49 89.9766 185.016C89.9766 186.663 89.5684 187.941 88.752 188.851C87.9355 189.76 86.7861 190.215 85.3037 190.215C83.943 190.215 82.8402 189.835 81.9951 189.076C81.1501 188.317 80.6667 187.254 80.5449 185.886H81.7803C81.902 186.953 82.2637 187.762 82.8652 188.313C83.4668 188.858 84.2796 189.13 85.3037 189.13C86.4209 189.13 87.2624 188.775 87.8281 188.066C88.401 187.357 88.6875 186.348 88.6875 185.037C88.6875 183.891 88.3688 182.957 87.7314 182.233C87.0941 181.51 86.224 181.148 85.1211 181.148C84.5124 181.148 83.9824 181.227 83.5312 181.385C83.0801 181.535 82.6038 181.832 82.1025 182.276L81.082 181.986ZM97.7109 182.051H102.47V183.254H97.7109V188.432H96.4111V183.254H91.749V182.051H96.4111V177.045H97.7109V182.051Z" fill="white"/>
<path d="M1.5 85.5H148.5V132.5H1.5V85.5Z" stroke="white" stroke-width="3"/>
<path d="M30.6875 109.828H15.0312V107.469H30.6875V109.828Z" fill="white"/>
<path d="M127.891 107.797H134.234V110.531H127.891V117.719H124.984V110.531H118.641V107.797H124.984V101.156H127.891V107.797Z" fill="white"/>
<path d="M76.3535 117H75.0645V102.906L70.8105 104.485V103.282L76.1387 101.306H76.3535V117Z" fill="white"/>
<path d="M1.97656 65V49.3594H6.5957C8.27148 49.3594 9.54264 49.7067 10.4092 50.4014C11.2757 51.0889 11.709 52.1058 11.709 53.4521C11.709 54.2614 11.487 54.9668 11.043 55.5684C10.6061 56.1628 10.0046 56.5889 9.23828 56.8467C10.1478 57.0472 10.8783 57.4948 11.4297 58.1895C11.9883 58.8841 12.2676 59.6862 12.2676 60.5957C12.2676 61.9779 11.82 63.0592 10.9248 63.8398C10.0368 64.6133 8.79785 65 7.20801 65H1.97656ZM3.29785 57.4805V63.8828H7.26172C8.39323 63.8828 9.28841 63.5964 9.94727 63.0234C10.6133 62.4434 10.9463 61.6413 10.9463 60.6172C10.9463 59.6504 10.6276 58.8877 9.99023 58.3291C9.36003 57.7633 8.48633 57.4805 7.36914 57.4805H3.29785ZM3.29785 56.374H6.90723C8.01009 56.3525 8.8623 56.0947 9.46387 55.6006C10.0726 55.0993 10.377 54.3724 10.377 53.4199C10.377 52.4173 10.0618 51.6797 9.43164 51.207C8.80859 50.7272 7.86328 50.4873 6.5957 50.4873H3.29785V56.374ZM22.5049 65C22.376 64.6348 22.2936 64.0941 22.2578 63.3779C21.8066 63.9652 21.2301 64.4199 20.5283 64.7422C19.8337 65.0573 19.096 65.2148 18.3154 65.2148C17.1982 65.2148 16.2923 64.9033 15.5977 64.2803C14.9102 63.6572 14.5664 62.8695 14.5664 61.917C14.5664 60.7855 15.0355 59.8903 15.9736 59.2314C16.9189 58.5726 18.2331 58.2432 19.916 58.2432H22.2471V56.9219C22.2471 56.0911 21.9893 55.4395 21.4736 54.9668C20.9652 54.487 20.2204 54.2471 19.2393 54.2471C18.3441 54.2471 17.6029 54.4762 17.0156 54.9346C16.4284 55.3929 16.1348 55.9443 16.1348 56.5889L14.8457 56.5781C14.8457 55.6543 15.2754 54.8558 16.1348 54.1826C16.9941 53.5023 18.0505 53.1621 19.3037 53.1621C20.5999 53.1621 21.6204 53.488 22.3652 54.1396C23.1172 54.7842 23.5039 55.6865 23.5254 56.8467V62.3467C23.5254 63.471 23.6436 64.3125 23.8799 64.8711V65H22.5049ZM18.4658 64.0762C19.3252 64.0762 20.0915 63.8685 20.7646 63.4531C21.445 63.0378 21.9391 62.4827 22.2471 61.7881V59.2314H19.9482C18.6663 59.2458 17.6637 59.4821 16.9404 59.9404C16.2171 60.3916 15.8555 61.0146 15.8555 61.8096C15.8555 62.4613 16.0954 63.002 16.5752 63.4316C17.0622 63.8613 17.6924 64.0762 18.4658 64.0762ZM33.9238 62.0459C33.9238 61.4085 33.666 60.8965 33.1504 60.5098C32.6419 60.123 31.8721 59.8223 30.8408 59.6074C29.8096 59.3854 29.0075 59.1348 28.4346 58.8555C27.8688 58.569 27.4463 58.2217 27.167 57.8135C26.8949 57.4053 26.7588 56.9111 26.7588 56.3311C26.7588 55.4144 27.1419 54.6589 27.9082 54.0645C28.6745 53.4629 29.6556 53.1621 30.8516 53.1621C32.1478 53.1621 33.1862 53.4844 33.9668 54.1289C34.7546 54.7663 35.1484 55.6006 35.1484 56.6318H33.8594C33.8594 55.9515 33.5729 55.3857 33 54.9346C32.4342 54.4834 31.7181 54.2578 30.8516 54.2578C30.0065 54.2578 29.3262 54.4476 28.8105 54.8271C28.3021 55.1995 28.0479 55.6865 28.0479 56.2881C28.0479 56.8682 28.2591 57.3193 28.6816 57.6416C29.1113 57.9567 29.8883 58.2467 31.0127 58.5117C32.1442 58.7767 32.9893 59.0596 33.5479 59.3604C34.1136 59.6611 34.5326 60.0228 34.8047 60.4453C35.0768 60.8678 35.2129 61.3799 35.2129 61.9814C35.2129 62.9626 34.8154 63.7467 34.0205 64.334C33.2327 64.9212 32.2015 65.2148 30.9268 65.2148C29.5732 65.2148 28.474 64.889 27.6289 64.2373C26.791 63.5785 26.3721 62.7477 26.3721 61.7451H27.6611C27.7113 62.4971 28.0264 63.0843 28.6064 63.5068C29.1937 63.9222 29.9671 64.1299 30.9268 64.1299C31.8219 64.1299 32.5452 63.9329 33.0967 63.5391C33.6481 63.1452 33.9238 62.6475 33.9238 62.0459ZM39.5527 65H38.2637V53.377H39.5527V65ZM38.0381 50.0146C38.0381 49.7712 38.1169 49.5671 38.2744 49.4023C38.432 49.2305 38.6468 49.1445 38.9189 49.1445C39.1911 49.1445 39.4059 49.2305 39.5635 49.4023C39.7282 49.5671 39.8105 49.7712 39.8105 50.0146C39.8105 50.2581 39.7282 50.4622 39.5635 50.627C39.4059 50.7917 39.1911 50.874 38.9189 50.874C38.6468 50.874 38.432 50.7917 38.2744 50.627C38.1169 50.4622 38.0381 50.2581 38.0381 50.0146ZM47.3516 64.1299C48.2467 64.1299 48.9951 63.8792 49.5967 63.3779C50.2054 62.8695 50.5348 62.2142 50.585 61.4121H51.8203C51.7845 62.1211 51.5625 62.7692 51.1543 63.3564C50.7461 63.9365 50.2018 64.3913 49.5215 64.7207C48.8483 65.0501 48.125 65.2148 47.3516 65.2148C45.8262 65.2148 44.6159 64.6849 43.7207 63.625C42.8327 62.5651 42.3887 61.14 42.3887 59.3496V58.9629C42.3887 57.8171 42.5892 56.8037 42.9902 55.9229C43.3913 55.042 43.9642 54.3617 44.709 53.8818C45.4609 53.402 46.3382 53.1621 47.3408 53.1621C48.6156 53.1621 49.6647 53.5417 50.4883 54.3008C51.319 55.0599 51.763 56.0589 51.8203 57.2979H50.585C50.5277 56.3883 50.1982 55.6543 49.5967 55.0957C49.0023 54.5371 48.2503 54.2578 47.3408 54.2578C46.1807 54.2578 45.2783 54.6768 44.6338 55.5146C43.9964 56.3525 43.6777 57.527 43.6777 59.0381V59.4141C43.6777 60.8965 43.9964 62.0531 44.6338 62.8838C45.2783 63.7145 46.1842 64.1299 47.3516 64.1299ZM65.5273 65H64.2383V50.9062L59.9844 52.4854V51.2822L65.3125 49.3057H65.5273V65ZM80.9639 53.3877C80.9639 54.1969 80.7275 54.9238 80.2549 55.5684C79.7822 56.2057 79.1592 56.6748 78.3857 56.9756C79.2881 57.2835 80.0114 57.7812 80.5557 58.4688C81.0999 59.1562 81.3721 59.9512 81.3721 60.8535C81.3721 62.1927 80.9173 63.2562 80.0078 64.0439C79.0983 64.8245 77.8952 65.2148 76.3984 65.2148C74.8874 65.2148 73.6771 64.8245 72.7676 64.0439C71.8652 63.2633 71.4141 62.1999 71.4141 60.8535C71.4141 59.9655 71.6755 59.1742 72.1982 58.4795C72.721 57.7848 73.4372 57.2835 74.3467 56.9756C73.5732 56.6748 72.9574 56.2057 72.499 55.5684C72.0407 54.9238 71.8115 54.1969 71.8115 53.3877C71.8115 52.0915 72.2269 51.0602 73.0576 50.2939C73.8955 49.5277 75.002 49.1445 76.377 49.1445C77.752 49.1445 78.8584 49.5312 79.6963 50.3047C80.5413 51.0781 80.9639 52.1058 80.9639 53.3877ZM80.083 60.8643C80.083 59.8903 79.7357 59.0918 79.041 58.4688C78.3464 57.8385 77.4583 57.5234 76.377 57.5234C75.2956 57.5234 74.4111 57.8314 73.7236 58.4473C73.0361 59.0632 72.6924 59.8688 72.6924 60.8643C72.6924 61.8597 73.0254 62.6546 73.6914 63.249C74.3574 63.8363 75.2598 64.1299 76.3984 64.1299C77.5085 64.1299 78.4001 63.8363 79.0732 63.249C79.7464 62.6618 80.083 61.8669 80.083 60.8643ZM79.6748 53.377C79.6748 52.4818 79.3633 51.737 78.7402 51.1426C78.1243 50.541 77.3366 50.2402 76.377 50.2402C75.403 50.2402 74.6117 50.5303 74.0029 51.1104C73.4014 51.6833 73.1006 52.4388 73.1006 53.377C73.1006 54.2936 73.4014 55.0312 74.0029 55.5898C74.6117 56.1484 75.4066 56.4277 76.3877 56.4277C77.3545 56.4277 78.1423 56.1484 78.751 55.5898C79.3669 55.0241 79.6748 54.2865 79.6748 53.377ZM89.2461 57.0508H94.0049V58.2539H89.2461V63.4316H87.9463V58.2539H83.2842V57.0508H87.9463V52.0449H89.2461V57.0508Z" fill="white"/>
<path d="M63.0156 21.8984H55.8242L54.457 26H50.0957L57.5059 6.09375H61.3066L68.7578 26H64.3965L63.0156 21.8984ZM56.9316 18.5762H61.9082L59.4062 11.125L56.9316 18.5762ZM73.4062 11.207L73.5293 12.8613C74.5775 11.5762 75.9948 10.9336 77.7812 10.9336C79.6862 10.9336 80.9941 11.6855 81.7051 13.1895C82.7441 11.6855 84.2253 10.9336 86.1484 10.9336C87.7526 10.9336 88.9466 11.403 89.7305 12.3418C90.5143 13.2715 90.9062 14.6751 90.9062 16.5527V26H86.9414V16.5664C86.9414 15.7279 86.7773 15.1172 86.4492 14.7344C86.1211 14.3424 85.5423 14.1465 84.7129 14.1465C83.528 14.1465 82.7077 14.7116 82.252 15.8418L82.2656 26H78.3145V16.5801C78.3145 15.7233 78.1458 15.1035 77.8086 14.7207C77.4714 14.3379 76.8971 14.1465 76.0859 14.1465C74.9648 14.1465 74.1536 14.6113 73.6523 15.541V26H69.7012V11.207H73.4062ZM93.3398 18.4668C93.3398 16.9993 93.6224 15.6914 94.1875 14.543C94.7526 13.3945 95.5638 12.5059 96.6211 11.877C97.6875 11.248 98.9225 10.9336 100.326 10.9336C102.322 10.9336 103.949 11.5443 105.207 12.7656C106.474 13.987 107.18 15.6458 107.326 17.7422L107.354 18.7539C107.354 21.0234 106.72 22.8464 105.453 24.2227C104.186 25.5898 102.486 26.2734 100.354 26.2734C98.2207 26.2734 96.5163 25.5898 95.2402 24.2227C93.9733 22.8555 93.3398 20.9961 93.3398 18.6445V18.4668ZM97.291 18.7539C97.291 20.1576 97.5553 21.2331 98.084 21.9805C98.6126 22.7188 99.3691 23.0879 100.354 23.0879C101.311 23.0879 102.058 22.7233 102.596 21.9941C103.133 21.2559 103.402 20.0801 103.402 18.4668C103.402 17.0905 103.133 16.0241 102.596 15.2676C102.058 14.5111 101.301 14.1328 100.326 14.1328C99.36 14.1328 98.6126 14.5111 98.084 15.2676C97.5553 16.015 97.291 17.1771 97.291 18.7539ZM118.646 24.4961C117.671 25.681 116.322 26.2734 114.6 26.2734C113.014 26.2734 111.801 25.8177 110.963 24.9062C110.133 23.9948 109.71 22.6595 109.691 20.9004V11.207H113.643V20.7637C113.643 22.304 114.344 23.0742 115.748 23.0742C117.088 23.0742 118.008 22.6094 118.51 21.6797V11.207H122.475V26H118.756L118.646 24.4961ZM129.092 11.207L129.215 12.916C130.272 11.5944 131.689 10.9336 133.467 10.9336C135.035 10.9336 136.201 11.3939 136.967 12.3145C137.732 13.235 138.124 14.6113 138.143 16.4434V26H134.191V16.5391C134.191 15.7005 134.009 15.0944 133.645 14.7207C133.28 14.3379 132.674 14.1465 131.826 14.1465C130.714 14.1465 129.88 14.6204 129.324 15.5684V26H125.373V11.207H129.092ZM145.881 7.57031V11.207H148.41V14.1055H145.881V21.4883C145.881 22.0352 145.986 22.4271 146.195 22.6641C146.405 22.901 146.806 23.0195 147.398 23.0195C147.836 23.0195 148.223 22.9876 148.561 22.9238V25.918C147.786 26.1549 146.988 26.2734 146.168 26.2734C143.397 26.2734 141.984 24.8743 141.93 22.0762V14.1055H139.77V11.207H141.93V7.57031H145.881Z" fill="white"/>
</svg>
