<svg width="270" height="262" viewBox="0 0 270 262" fill="none" xmlns="http://www.w3.org/2000/svg">
<path d="M53.0518 249.123C52.8727 250.77 52.2819 252.031 51.2793 252.904C50.2839 253.778 48.9554 254.215 47.2939 254.215C46.1338 254.215 45.1061 253.925 44.2109 253.345C43.3229 252.765 42.6354 251.945 42.1484 250.885C41.6615 249.818 41.4144 248.6 41.4072 247.232V245.202C41.4072 243.813 41.6507 242.581 42.1377 241.507C42.6247 240.433 43.3229 239.605 44.2324 239.025C45.1491 238.438 46.2018 238.145 47.3906 238.145C49.0664 238.145 50.3877 238.599 51.3545 239.509C52.3285 240.411 52.8942 241.661 53.0518 243.258H51.7197C51.3903 240.601 49.9473 239.272 47.3906 239.272C45.9727 239.272 44.8411 239.802 43.9961 240.862C43.1582 241.922 42.7393 243.387 42.7393 245.256V247.168C42.7393 248.973 43.1475 250.412 43.9639 251.486C44.7874 252.561 45.8975 253.098 47.2939 253.098C48.6761 253.098 49.7181 252.768 50.4199 252.109C51.1217 251.443 51.555 250.448 51.7197 249.123H53.0518ZM55.2539 248.017C55.2539 246.899 55.4688 245.893 55.8984 244.998C56.3353 244.103 56.9476 243.408 57.7354 242.914C58.5303 242.413 59.429 242.162 60.4316 242.162C61.9785 242.162 63.2318 242.706 64.1914 243.795C65.151 244.876 65.6309 246.312 65.6309 248.103V248.371C65.6309 249.495 65.4124 250.509 64.9756 251.411C64.5459 252.306 63.9372 252.997 63.1494 253.484C62.3617 253.971 61.4629 254.215 60.4531 254.215C58.9134 254.215 57.6602 253.674 56.6934 252.593C55.7337 251.504 55.2539 250.065 55.2539 248.274V248.017ZM56.543 248.371C56.543 249.76 56.901 250.903 57.6172 251.798C58.3405 252.686 59.2858 253.13 60.4531 253.13C61.6133 253.13 62.5514 252.686 63.2676 251.798C63.9909 250.903 64.3525 249.725 64.3525 248.264V248.017C64.3525 247.129 64.1878 246.316 63.8584 245.578C63.529 244.84 63.0671 244.271 62.4727 243.87C61.8783 243.462 61.1979 243.258 60.4316 243.258C59.2858 243.258 58.3512 243.709 57.6279 244.611C56.9046 245.507 56.543 246.681 56.543 248.135V248.371ZM69.4658 242.377L69.5088 244.268C69.9385 243.566 70.4756 243.039 71.1201 242.688C71.7646 242.338 72.4808 242.162 73.2686 242.162C75.1019 242.162 76.2656 242.914 76.7598 244.418C77.1751 243.695 77.7301 243.14 78.4248 242.753C79.1195 242.359 79.8857 242.162 80.7236 242.162C83.2158 242.162 84.487 243.523 84.5371 246.244V254H83.248V246.341C83.2409 245.302 83.0153 244.533 82.5713 244.031C82.1344 243.53 81.4183 243.279 80.4229 243.279C79.499 243.294 78.7184 243.594 78.0811 244.182C77.4437 244.762 77.0892 245.471 77.0176 246.309V254H75.7285V246.244C75.7214 245.249 75.485 244.507 75.0195 244.021C74.5612 243.526 73.8522 243.279 72.8926 243.279C72.0833 243.279 71.3887 243.512 70.8086 243.978C70.2285 244.436 69.7988 245.12 69.5195 246.029V254H68.2305V242.377H69.4658ZM97.1592 248.307C97.1592 250.118 96.7581 251.558 95.9561 252.625C95.154 253.685 94.0762 254.215 92.7227 254.215C91.1042 254.215 89.8796 253.613 89.0488 252.41L88.9951 254H87.792V237.5H89.0703V244.063C89.8867 242.796 91.097 242.162 92.7012 242.162C94.0762 242.162 95.1611 242.688 95.9561 243.741C96.7581 244.787 97.1592 246.244 97.1592 248.113V248.307ZM95.8701 248.081C95.8701 246.549 95.5729 245.367 94.9785 244.536C94.3841 243.698 93.5462 243.279 92.4648 243.279C91.6413 243.279 90.943 243.483 90.3701 243.892C89.7972 244.293 89.3639 244.883 89.0703 245.664V250.906C89.7148 252.367 90.8535 253.098 92.4863 253.098C93.5462 253.098 94.3734 252.679 94.9678 251.841C95.5693 251.003 95.8701 249.75 95.8701 248.081ZM101.445 254H100.156V242.377H101.445V254ZM99.9307 239.015C99.9307 238.771 100.009 238.567 100.167 238.402C100.325 238.23 100.539 238.145 100.812 238.145C101.084 238.145 101.299 238.23 101.456 238.402C101.621 238.567 101.703 238.771 101.703 239.015C101.703 239.258 101.621 239.462 101.456 239.627C101.299 239.792 101.084 239.874 100.812 239.874C100.539 239.874 100.325 239.792 100.167 239.627C100.009 239.462 99.9307 239.258 99.9307 239.015ZM106.172 242.377L106.215 244.364C106.652 243.648 107.196 243.104 107.848 242.731C108.499 242.352 109.219 242.162 110.007 242.162C111.253 242.162 112.18 242.513 112.789 243.215C113.398 243.917 113.706 244.969 113.713 246.373V254H112.435V246.362C112.427 245.324 112.205 244.55 111.769 244.042C111.339 243.534 110.648 243.279 109.695 243.279C108.9 243.279 108.195 243.53 107.579 244.031C106.97 244.525 106.519 245.195 106.226 246.04V254H104.947V242.377H106.172ZM121.544 254.215C120.556 254.215 119.66 253.971 118.858 253.484C118.063 252.997 117.444 252.321 117 251.454C116.556 250.58 116.334 249.603 116.334 248.521V248.06C116.334 246.942 116.549 245.936 116.979 245.041C117.415 244.146 118.021 243.444 118.794 242.936C119.567 242.42 120.405 242.162 121.308 242.162C122.718 242.162 123.836 242.646 124.659 243.612C125.49 244.572 125.905 245.886 125.905 247.555V248.274H117.612V248.521C117.612 249.839 117.988 250.938 118.74 251.819C119.499 252.693 120.452 253.13 121.598 253.13C122.285 253.13 122.89 253.005 123.413 252.754C123.943 252.503 124.423 252.102 124.853 251.551L125.658 252.163C124.713 253.531 123.341 254.215 121.544 254.215ZM121.308 243.258C120.341 243.258 119.524 243.612 118.858 244.321C118.2 245.03 117.799 245.983 117.655 247.179H124.627V247.039C124.591 245.922 124.272 245.012 123.671 244.311C123.069 243.609 122.282 243.258 121.308 243.258ZM127.893 248.081C127.893 246.276 128.294 244.84 129.096 243.773C129.905 242.699 131.001 242.162 132.383 242.162C133.951 242.162 135.147 242.782 135.971 244.021V237.5H137.249V254H136.046L135.992 252.453C135.169 253.628 133.958 254.215 132.361 254.215C131.022 254.215 129.941 253.678 129.117 252.604C128.301 251.522 127.893 250.065 127.893 248.231V248.081ZM129.192 248.307C129.192 249.789 129.49 250.96 130.084 251.819C130.678 252.672 131.516 253.098 132.598 253.098C134.18 253.098 135.305 252.399 135.971 251.003V245.546C135.305 244.035 134.188 243.279 132.619 243.279C131.538 243.279 130.696 243.705 130.095 244.558C129.493 245.403 129.192 246.652 129.192 248.307ZM154.727 249.617H147.626L146.015 254H144.629L150.548 238.359H151.805L157.724 254H156.349L154.727 249.617ZM148.034 248.489H154.308L151.171 239.971L148.034 248.489ZM159.217 248.081C159.217 246.276 159.618 244.84 160.42 243.773C161.229 242.699 162.325 242.162 163.707 242.162C165.275 242.162 166.471 242.782 167.295 244.021V237.5H168.573V254H167.37L167.316 252.453C166.493 253.628 165.283 254.215 163.686 254.215C162.346 254.215 161.265 253.678 160.441 252.604C159.625 251.522 159.217 250.065 159.217 248.231V248.081ZM160.517 248.307C160.517 249.789 160.814 250.96 161.408 251.819C162.003 252.672 162.84 253.098 163.922 253.098C165.505 253.098 166.629 252.399 167.295 251.003V245.546C166.629 244.035 165.512 243.279 163.943 243.279C162.862 243.279 162.021 243.705 161.419 244.558C160.817 245.403 160.517 246.652 160.517 248.307ZM173.128 242.377L173.171 244.268C173.601 243.566 174.138 243.039 174.782 242.688C175.427 242.338 176.143 242.162 176.931 242.162C178.764 242.162 179.928 242.914 180.422 244.418C180.837 243.695 181.392 243.14 182.087 242.753C182.782 242.359 183.548 242.162 184.386 242.162C186.878 242.162 188.149 243.523 188.199 246.244V254H186.91V246.341C186.903 245.302 186.677 244.533 186.233 244.031C185.797 243.53 185.08 243.279 184.085 243.279C183.161 243.294 182.381 243.594 181.743 244.182C181.106 244.762 180.751 245.471 180.68 246.309V254H179.391V246.244C179.383 245.249 179.147 244.507 178.682 244.021C178.223 243.526 177.514 243.279 176.555 243.279C175.745 243.279 175.051 243.512 174.471 243.978C173.891 244.436 173.461 245.12 173.182 246.029V254H171.893V242.377H173.128ZM192.904 254H191.615V242.377H192.904V254ZM191.39 239.015C191.39 238.771 191.468 238.567 191.626 238.402C191.784 238.23 191.998 238.145 192.271 238.145C192.543 238.145 192.757 238.23 192.915 238.402C193.08 238.567 193.162 238.771 193.162 239.015C193.162 239.258 193.08 239.462 192.915 239.627C192.757 239.792 192.543 239.874 192.271 239.874C191.998 239.874 191.784 239.792 191.626 239.627C191.468 239.462 191.39 239.258 191.39 239.015ZM203.367 251.046C203.367 250.409 203.109 249.896 202.594 249.51C202.085 249.123 201.315 248.822 200.284 248.607C199.253 248.385 198.451 248.135 197.878 247.855C197.312 247.569 196.89 247.222 196.61 246.813C196.338 246.405 196.202 245.911 196.202 245.331C196.202 244.414 196.585 243.659 197.352 243.064C198.118 242.463 199.099 242.162 200.295 242.162C201.591 242.162 202.63 242.484 203.41 243.129C204.198 243.766 204.592 244.601 204.592 245.632H203.303C203.303 244.951 203.016 244.386 202.443 243.935C201.878 243.483 201.161 243.258 200.295 243.258C199.45 243.258 198.77 243.448 198.254 243.827C197.745 244.2 197.491 244.687 197.491 245.288C197.491 245.868 197.702 246.319 198.125 246.642C198.555 246.957 199.332 247.247 200.456 247.512C201.588 247.777 202.433 248.06 202.991 248.36C203.557 248.661 203.976 249.023 204.248 249.445C204.52 249.868 204.656 250.38 204.656 250.981C204.656 251.963 204.259 252.747 203.464 253.334C202.676 253.921 201.645 254.215 200.37 254.215C199.017 254.215 197.917 253.889 197.072 253.237C196.234 252.578 195.815 251.748 195.815 250.745H197.104C197.155 251.497 197.47 252.084 198.05 252.507C198.637 252.922 199.41 253.13 200.37 253.13C201.265 253.13 201.989 252.933 202.54 252.539C203.091 252.145 203.367 251.647 203.367 251.046ZM214.518 251.046C214.518 250.409 214.26 249.896 213.744 249.51C213.236 249.123 212.466 248.822 211.435 248.607C210.403 248.385 209.601 248.135 209.028 247.855C208.463 247.569 208.04 247.222 207.761 246.813C207.489 246.405 207.353 245.911 207.353 245.331C207.353 244.414 207.736 243.659 208.502 243.064C209.268 242.463 210.249 242.162 211.445 242.162C212.742 242.162 213.78 242.484 214.561 243.129C215.348 243.766 215.742 244.601 215.742 245.632H214.453C214.453 244.951 214.167 244.386 213.594 243.935C213.028 243.483 212.312 243.258 211.445 243.258C210.6 243.258 209.92 243.448 209.404 243.827C208.896 244.2 208.642 244.687 208.642 245.288C208.642 245.868 208.853 246.319 209.275 246.642C209.705 246.957 210.482 247.247 211.606 247.512C212.738 247.777 213.583 248.06 214.142 248.36C214.707 248.661 215.126 249.023 215.398 249.445C215.671 249.868 215.807 250.38 215.807 250.981C215.807 251.963 215.409 252.747 214.614 253.334C213.826 253.921 212.795 254.215 211.521 254.215C210.167 254.215 209.068 253.889 208.223 253.237C207.385 252.578 206.966 251.748 206.966 250.745H208.255C208.305 251.497 208.62 252.084 209.2 252.507C209.787 252.922 210.561 253.13 211.521 253.13C212.416 253.13 213.139 252.933 213.69 252.539C214.242 252.145 214.518 251.647 214.518 251.046ZM220.146 254H218.857V242.377H220.146V254ZM218.632 239.015C218.632 238.771 218.711 238.567 218.868 238.402C219.026 238.23 219.241 238.145 219.513 238.145C219.785 238.145 220 238.23 220.157 238.402C220.322 238.567 220.404 238.771 220.404 239.015C220.404 239.258 220.322 239.462 220.157 239.627C220 239.792 219.785 239.874 219.513 239.874C219.241 239.874 219.026 239.792 218.868 239.627C218.711 239.462 218.632 239.258 218.632 239.015ZM222.939 248.017C222.939 246.899 223.154 245.893 223.584 244.998C224.021 244.103 224.633 243.408 225.421 242.914C226.216 242.413 227.115 242.162 228.117 242.162C229.664 242.162 230.917 242.706 231.877 243.795C232.837 244.876 233.316 246.312 233.316 248.103V248.371C233.316 249.495 233.098 250.509 232.661 251.411C232.231 252.306 231.623 252.997 230.835 253.484C230.047 253.971 229.148 254.215 228.139 254.215C226.599 254.215 225.346 253.674 224.379 252.593C223.419 251.504 222.939 250.065 222.939 248.274V248.017ZM224.229 248.371C224.229 249.76 224.587 250.903 225.303 251.798C226.026 252.686 226.971 253.13 228.139 253.13C229.299 253.13 230.237 252.686 230.953 251.798C231.676 250.903 232.038 249.725 232.038 248.264V248.017C232.038 247.129 231.873 246.316 231.544 245.578C231.215 244.84 230.753 244.271 230.158 243.87C229.564 243.462 228.883 243.258 228.117 243.258C226.971 243.258 226.037 243.709 225.313 244.611C224.59 245.507 224.229 246.681 224.229 248.135V248.371ZM237.205 242.377L237.248 244.364C237.685 243.648 238.229 243.104 238.881 242.731C239.533 242.352 240.252 242.162 241.04 242.162C242.286 242.162 243.214 242.513 243.822 243.215C244.431 243.917 244.739 244.969 244.746 246.373V254H243.468V246.362C243.461 245.324 243.239 244.55 242.802 244.042C242.372 243.534 241.681 243.279 240.729 243.279C239.934 243.279 239.228 243.53 238.612 244.031C238.004 244.525 237.552 245.195 237.259 246.04V254H235.98V242.377H237.205Z" fill="white"/>
<circle cx="8.5" cy="245.5" r="7.5" stroke="white" stroke-width="2"/>
<path d="M52.5898 164.487H47.2295V179H45.9082V164.487H40.5586V163.359H52.5898V164.487ZM58.251 179.215C57.2627 179.215 56.3675 178.971 55.5654 178.484C54.7705 177.997 54.151 177.321 53.707 176.454C53.263 175.58 53.041 174.603 53.041 173.521V173.06C53.041 171.942 53.2559 170.936 53.6855 170.041C54.1224 169.146 54.7275 168.444 55.501 167.936C56.2744 167.42 57.1123 167.162 58.0146 167.162C59.4255 167.162 60.5426 167.646 61.3662 168.612C62.1969 169.572 62.6123 170.886 62.6123 172.555V173.274H54.3193V173.521C54.3193 174.839 54.6953 175.938 55.4473 176.819C56.2064 177.693 57.1589 178.13 58.3047 178.13C58.9922 178.13 59.5973 178.005 60.1201 177.754C60.6501 177.503 61.1299 177.102 61.5596 176.551L62.3652 177.163C61.4199 178.531 60.0485 179.215 58.251 179.215ZM58.0146 168.258C57.0479 168.258 56.2314 168.612 55.5654 169.321C54.9066 170.03 54.5055 170.983 54.3623 172.179H61.334V172.039C61.2982 170.922 60.9795 170.012 60.3779 169.311C59.7764 168.609 58.9886 168.258 58.0146 168.258ZM66.2861 167.377L66.3291 169.268C66.7588 168.566 67.2959 168.039 67.9404 167.688C68.585 167.338 69.3011 167.162 70.0889 167.162C71.9222 167.162 73.0859 167.914 73.5801 169.418C73.9954 168.695 74.5505 168.14 75.2451 167.753C75.9398 167.359 76.7061 167.162 77.5439 167.162C80.0361 167.162 81.3073 168.523 81.3574 171.244V179H80.0684V171.341C80.0612 170.302 79.8356 169.533 79.3916 169.031C78.9548 168.53 78.2386 168.279 77.2432 168.279C76.3193 168.294 75.5387 168.594 74.9014 169.182C74.264 169.762 73.9095 170.471 73.8379 171.309V179H72.5488V171.244C72.5417 170.249 72.3053 169.507 71.8398 169.021C71.3815 168.526 70.6725 168.279 69.7129 168.279C68.9036 168.279 68.209 168.512 67.6289 168.978C67.0488 169.436 66.6191 170.12 66.3398 171.029V179H65.0508V167.377H66.2861ZM93.9688 173.307C93.9688 175.118 93.5677 176.558 92.7656 177.625C91.9635 178.685 90.8893 179.215 89.543 179.215C87.9531 179.215 86.7357 178.656 85.8906 177.539V183.469H84.6123V167.377H85.8047L85.8691 169.021C86.707 167.782 87.9209 167.162 89.5107 167.162C90.9001 167.162 91.9886 167.688 92.7764 168.741C93.5713 169.794 93.9688 171.255 93.9688 173.124V173.307ZM92.6797 173.081C92.6797 171.599 92.3753 170.428 91.7666 169.568C91.1579 168.709 90.3092 168.279 89.2207 168.279C88.4329 168.279 87.7562 168.469 87.1904 168.849C86.6247 169.228 86.1914 169.78 85.8906 170.503V176.078C86.1986 176.744 86.639 177.253 87.2119 177.604C87.7848 177.954 88.4616 178.13 89.2422 178.13C90.3236 178.13 91.165 177.7 91.7666 176.841C92.3753 175.974 92.6797 174.721 92.6797 173.081ZM96.1172 173.017C96.1172 171.899 96.332 170.893 96.7617 169.998C97.1986 169.103 97.8109 168.408 98.5986 167.914C99.3936 167.413 100.292 167.162 101.295 167.162C102.842 167.162 104.095 167.706 105.055 168.795C106.014 169.876 106.494 171.312 106.494 173.103V173.371C106.494 174.495 106.276 175.509 105.839 176.411C105.409 177.306 104.8 177.997 104.013 178.484C103.225 178.971 102.326 179.215 101.316 179.215C99.7767 179.215 98.5234 178.674 97.5566 177.593C96.597 176.504 96.1172 175.065 96.1172 173.274V173.017ZM97.4062 173.371C97.4062 174.76 97.7643 175.903 98.4805 176.798C99.2038 177.686 100.149 178.13 101.316 178.13C102.477 178.13 103.415 177.686 104.131 176.798C104.854 175.903 105.216 174.725 105.216 173.264V173.017C105.216 172.129 105.051 171.316 104.722 170.578C104.392 169.84 103.93 169.271 103.336 168.87C102.742 168.462 102.061 168.258 101.295 168.258C100.149 168.258 99.2145 168.709 98.4912 169.611C97.7679 170.507 97.4062 171.681 97.4062 173.135V173.371ZM114.529 168.473C114.257 168.423 113.967 168.397 113.659 168.397C112.857 168.397 112.177 168.623 111.618 169.074C111.067 169.518 110.673 170.166 110.437 171.019V179H109.158V167.377H110.415L110.437 169.225C111.117 167.85 112.209 167.162 113.713 167.162C114.071 167.162 114.354 167.209 114.562 167.302L114.529 168.473ZM123.478 179C123.349 178.635 123.266 178.094 123.23 177.378C122.779 177.965 122.203 178.42 121.501 178.742C120.806 179.057 120.069 179.215 119.288 179.215C118.171 179.215 117.265 178.903 116.57 178.28C115.883 177.657 115.539 176.869 115.539 175.917C115.539 174.785 116.008 173.89 116.946 173.231C117.892 172.573 119.206 172.243 120.889 172.243H123.22V170.922C123.22 170.091 122.962 169.439 122.446 168.967C121.938 168.487 121.193 168.247 120.212 168.247C119.317 168.247 118.576 168.476 117.988 168.935C117.401 169.393 117.107 169.944 117.107 170.589L115.818 170.578C115.818 169.654 116.248 168.856 117.107 168.183C117.967 167.502 119.023 167.162 120.276 167.162C121.573 167.162 122.593 167.488 123.338 168.14C124.09 168.784 124.477 169.687 124.498 170.847V176.347C124.498 177.471 124.616 178.312 124.853 178.871V179H123.478ZM119.438 178.076C120.298 178.076 121.064 177.868 121.737 177.453C122.418 177.038 122.912 176.483 123.22 175.788V173.231H120.921C119.639 173.246 118.636 173.482 117.913 173.94C117.19 174.392 116.828 175.015 116.828 175.81C116.828 176.461 117.068 177.002 117.548 177.432C118.035 177.861 118.665 178.076 119.438 178.076ZM133.307 168.473C133.035 168.423 132.744 168.397 132.437 168.397C131.634 168.397 130.954 168.623 130.396 169.074C129.844 169.518 129.45 170.166 129.214 171.019V179H127.936V167.377H129.192L129.214 169.225C129.894 167.85 130.986 167.162 132.49 167.162C132.848 167.162 133.131 167.209 133.339 167.302L133.307 168.473ZM139.226 177.152L142.62 167.377H144.006L139.043 180.977L138.785 181.578C138.148 182.989 137.163 183.694 135.831 183.694C135.523 183.694 135.194 183.644 134.843 183.544L134.832 182.48L135.498 182.545C136.128 182.545 136.637 182.387 137.023 182.072C137.417 181.764 137.75 181.231 138.022 180.472L138.592 178.903L134.209 167.377H135.616L139.226 177.152ZM155.854 179.215C154.866 179.215 153.971 178.971 153.169 178.484C152.374 177.997 151.755 177.321 151.311 176.454C150.867 175.58 150.645 174.603 150.645 173.521V173.06C150.645 171.942 150.859 170.936 151.289 170.041C151.726 169.146 152.331 168.444 153.104 167.936C153.878 167.42 154.716 167.162 155.618 167.162C157.029 167.162 158.146 167.646 158.97 168.612C159.8 169.572 160.216 170.886 160.216 172.555V173.274H151.923V173.521C151.923 174.839 152.299 175.938 153.051 176.819C153.81 177.693 154.762 178.13 155.908 178.13C156.596 178.13 157.201 178.005 157.724 177.754C158.254 177.503 158.733 177.102 159.163 176.551L159.969 177.163C159.023 178.531 157.652 179.215 155.854 179.215ZM155.618 168.258C154.651 168.258 153.835 168.612 153.169 169.321C152.51 170.03 152.109 170.983 151.966 172.179H158.938V172.039C158.902 170.922 158.583 170.012 157.981 169.311C157.38 168.609 156.592 168.258 155.618 168.258ZM166.371 172.093L169.508 167.377H171.033L167.091 173.081L171.205 179H169.69L166.382 174.08L163.073 179H161.559L165.662 173.081L161.72 167.377H163.234L166.371 172.093ZM174.696 169.343C175.119 168.648 175.66 168.111 176.318 167.731C176.977 167.352 177.697 167.162 178.478 167.162C179.724 167.162 180.651 167.513 181.26 168.215C181.868 168.917 182.176 169.969 182.184 171.373V179H180.905V171.362C180.898 170.324 180.676 169.55 180.239 169.042C179.81 168.534 179.118 168.279 178.166 168.279C177.371 168.279 176.666 168.53 176.05 169.031C175.441 169.525 174.99 170.195 174.696 171.04V179H173.418V162.5H174.696V169.343ZM186.932 179H185.643V167.377H186.932V179ZM185.417 164.015C185.417 163.771 185.496 163.567 185.653 163.402C185.811 163.23 186.026 163.145 186.298 163.145C186.57 163.145 186.785 163.23 186.942 163.402C187.107 163.567 187.189 163.771 187.189 164.015C187.189 164.258 187.107 164.462 186.942 164.627C186.785 164.792 186.57 164.874 186.298 164.874C186.026 164.874 185.811 164.792 185.653 164.627C185.496 164.462 185.417 164.258 185.417 164.015ZM199.79 173.307C199.79 175.118 199.389 176.558 198.587 177.625C197.785 178.685 196.707 179.215 195.354 179.215C193.735 179.215 192.51 178.613 191.68 177.41L191.626 179H190.423V162.5H191.701V169.063C192.518 167.796 193.728 167.162 195.332 167.162C196.707 167.162 197.792 167.688 198.587 168.741C199.389 169.787 199.79 171.244 199.79 173.113V173.307ZM198.501 173.081C198.501 171.549 198.204 170.367 197.609 169.536C197.015 168.698 196.177 168.279 195.096 168.279C194.272 168.279 193.574 168.483 193.001 168.892C192.428 169.293 191.995 169.883 191.701 170.664V175.906C192.346 177.367 193.484 178.098 195.117 178.098C196.177 178.098 197.004 177.679 197.599 176.841C198.2 176.003 198.501 174.75 198.501 173.081ZM204.076 179H202.787V167.377H204.076V179ZM202.562 164.015C202.562 163.771 202.64 163.567 202.798 163.402C202.955 163.23 203.17 163.145 203.442 163.145C203.715 163.145 203.929 163.23 204.087 163.402C204.252 163.567 204.334 163.771 204.334 164.015C204.334 164.258 204.252 164.462 204.087 164.627C203.929 164.792 203.715 164.874 203.442 164.874C203.17 164.874 202.955 164.792 202.798 164.627C202.64 164.462 202.562 164.258 202.562 164.015ZM209.576 164.401V167.377H211.982V168.43H209.576V176.175C209.576 176.819 209.691 177.299 209.92 177.614C210.156 177.929 210.547 178.087 211.091 178.087C211.306 178.087 211.653 178.051 212.133 177.979L212.187 179.032C211.85 179.154 211.392 179.215 210.812 179.215C209.931 179.215 209.29 178.961 208.889 178.452C208.488 177.937 208.287 177.181 208.287 176.186V168.43H206.149V167.377H208.287V164.401H209.576ZM216.086 179H214.797V167.377H216.086V179ZM214.571 164.015C214.571 163.771 214.65 163.567 214.808 163.402C214.965 163.23 215.18 163.145 215.452 163.145C215.724 163.145 215.939 163.23 216.097 163.402C216.261 163.567 216.344 163.771 216.344 164.015C216.344 164.258 216.261 164.462 216.097 164.627C215.939 164.792 215.724 164.874 215.452 164.874C215.18 164.874 214.965 164.792 214.808 164.627C214.65 164.462 214.571 164.258 214.571 164.015ZM218.879 173.017C218.879 171.899 219.094 170.893 219.523 169.998C219.96 169.103 220.573 168.408 221.36 167.914C222.155 167.413 223.054 167.162 224.057 167.162C225.604 167.162 226.857 167.706 227.816 168.795C228.776 169.876 229.256 171.312 229.256 173.103V173.371C229.256 174.495 229.037 175.509 228.601 176.411C228.171 177.306 227.562 177.997 226.774 178.484C225.987 178.971 225.088 179.215 224.078 179.215C222.538 179.215 221.285 178.674 220.318 177.593C219.359 176.504 218.879 175.065 218.879 173.274V173.017ZM220.168 173.371C220.168 174.76 220.526 175.903 221.242 176.798C221.965 177.686 222.911 178.13 224.078 178.13C225.238 178.13 226.176 177.686 226.893 176.798C227.616 175.903 227.978 174.725 227.978 173.264V173.017C227.978 172.129 227.813 171.316 227.483 170.578C227.154 169.84 226.692 169.271 226.098 168.87C225.503 168.462 224.823 168.258 224.057 168.258C222.911 168.258 221.976 168.709 221.253 169.611C220.53 170.507 220.168 171.681 220.168 173.135V173.371ZM233.145 167.377L233.188 169.364C233.624 168.648 234.169 168.104 234.82 167.731C235.472 167.352 236.192 167.162 236.979 167.162C238.226 167.162 239.153 167.513 239.762 168.215C240.37 168.917 240.678 169.969 240.686 171.373V179H239.407V171.362C239.4 170.324 239.178 169.55 238.741 169.042C238.312 168.534 237.62 168.279 236.668 168.279C235.873 168.279 235.168 168.53 234.552 169.031C233.943 169.525 233.492 170.195 233.198 171.04V179H231.92V167.377H233.145Z" fill="white"/>
<circle cx="8.5" cy="170.5" r="7.5" stroke="white" stroke-width="2"/>
<path d="M43.2979 97.6299V104H41.9766V88.3594H47.3047C48.9303 88.3594 50.2122 88.7747 51.1504 89.6055C52.0957 90.4362 52.5684 91.5785 52.5684 93.0322C52.5684 94.5003 52.1136 95.6354 51.2041 96.4375C50.3018 97.2324 48.9912 97.6299 47.2725 97.6299H43.2979ZM43.2979 96.5127H47.3047C48.5866 96.5127 49.5641 96.2083 50.2373 95.5996C50.9105 94.9909 51.2471 94.1423 51.2471 93.0537C51.2471 91.9723 50.9105 91.113 50.2373 90.4756C49.5713 89.8311 48.6224 89.5016 47.3906 89.4873H43.2979V96.5127ZM59.583 104.215C58.5947 104.215 57.6995 103.971 56.8975 103.484C56.1025 102.997 55.4831 102.321 55.0391 101.454C54.5951 100.58 54.373 99.6029 54.373 98.5215V98.0596C54.373 96.9424 54.5879 95.9362 55.0176 95.041C55.4544 94.1458 56.0596 93.444 56.833 92.9355C57.6064 92.4199 58.4443 92.1621 59.3467 92.1621C60.7575 92.1621 61.8747 92.6455 62.6982 93.6123C63.529 94.5719 63.9443 95.8861 63.9443 97.5547V98.2744H55.6514V98.5215C55.6514 99.8392 56.0273 100.938 56.7793 101.819C57.5384 102.693 58.4909 103.13 59.6367 103.13C60.3242 103.13 60.9294 103.005 61.4521 102.754C61.9821 102.503 62.4619 102.102 62.8916 101.551L63.6973 102.163C62.752 103.531 61.3805 104.215 59.583 104.215ZM59.3467 93.2578C58.3799 93.2578 57.5635 93.6123 56.8975 94.3213C56.2386 95.0303 55.8376 95.9827 55.6943 97.1787H62.666V97.0391C62.6302 95.9219 62.3115 95.0124 61.71 94.3105C61.1084 93.6087 60.3206 93.2578 59.3467 93.2578ZM71.8184 93.4727C71.5462 93.4225 71.2562 93.3975 70.9482 93.3975C70.1462 93.3975 69.4658 93.623 68.9072 94.0742C68.3558 94.5182 67.9619 95.1663 67.7256 96.0186V104H66.4473V92.377H67.7041L67.7256 94.2246C68.4059 92.8496 69.498 92.1621 71.002 92.1621C71.36 92.1621 71.6429 92.2087 71.8506 92.3018L71.8184 93.4727ZM75.0303 92.377L75.0732 94.2676C75.5029 93.5658 76.04 93.0394 76.6846 92.6885C77.3291 92.3376 78.0452 92.1621 78.833 92.1621C80.6663 92.1621 81.8301 92.9141 82.3242 94.418C82.7396 93.6947 83.2946 93.1396 83.9893 92.7529C84.6839 92.359 85.4502 92.1621 86.2881 92.1621C88.7803 92.1621 90.0514 93.5228 90.1016 96.2441V104H88.8125V96.3408C88.8053 95.3024 88.5798 94.5326 88.1357 94.0312C87.6989 93.5299 86.9827 93.2793 85.9873 93.2793C85.0635 93.2936 84.2829 93.5944 83.6455 94.1816C83.0081 94.7617 82.6536 95.4707 82.582 96.3086V104H81.293V96.2441C81.2858 95.2487 81.0495 94.5075 80.584 94.0205C80.1257 93.5264 79.4167 93.2793 78.457 93.2793C77.6478 93.2793 76.9531 93.512 76.373 93.9775C75.793 94.4359 75.3633 95.1198 75.084 96.0293V104H73.7949V92.377H75.0303ZM100.704 104C100.575 103.635 100.493 103.094 100.457 102.378C100.006 102.965 99.4294 103.42 98.7275 103.742C98.0329 104.057 97.2952 104.215 96.5146 104.215C95.3975 104.215 94.4915 103.903 93.7969 103.28C93.1094 102.657 92.7656 101.869 92.7656 100.917C92.7656 99.7855 93.2347 98.8903 94.1729 98.2314C95.1182 97.5726 96.4323 97.2432 98.1152 97.2432H100.446V95.9219C100.446 95.0911 100.188 94.4395 99.6729 93.9668C99.1644 93.487 98.4196 93.2471 97.4385 93.2471C96.5433 93.2471 95.8021 93.4762 95.2148 93.9346C94.6276 94.3929 94.334 94.9443 94.334 95.5889L93.0449 95.5781C93.0449 94.6543 93.4746 93.8558 94.334 93.1826C95.1934 92.5023 96.2497 92.1621 97.5029 92.1621C98.7992 92.1621 99.8197 92.488 100.564 93.1396C101.316 93.7842 101.703 94.6865 101.725 95.8467V101.347C101.725 102.471 101.843 103.312 102.079 103.871V104H100.704ZM96.665 103.076C97.5244 103.076 98.2907 102.868 98.9639 102.453C99.6442 102.038 100.138 101.483 100.446 100.788V98.2314H98.1475C96.8656 98.2458 95.863 98.4821 95.1396 98.9404C94.4163 99.3916 94.0547 100.015 94.0547 100.81C94.0547 101.461 94.2946 102.002 94.7744 102.432C95.2614 102.861 95.8916 103.076 96.665 103.076ZM106.387 92.377L106.43 94.3643C106.867 93.6481 107.411 93.1038 108.062 92.7314C108.714 92.3519 109.434 92.1621 110.222 92.1621C111.468 92.1621 112.395 92.513 113.004 93.2148C113.613 93.9167 113.921 94.9694 113.928 96.373V104H112.649V96.3623C112.642 95.3239 112.42 94.5505 111.983 94.042C111.554 93.5335 110.863 93.2793 109.91 93.2793C109.115 93.2793 108.41 93.5299 107.794 94.0312C107.185 94.5254 106.734 95.195 106.44 96.04V104H105.162V92.377H106.387ZM121.759 104.215C120.771 104.215 119.875 103.971 119.073 103.484C118.278 102.997 117.659 102.321 117.215 101.454C116.771 100.58 116.549 99.6029 116.549 98.5215V98.0596C116.549 96.9424 116.764 95.9362 117.193 95.041C117.63 94.1458 118.235 93.444 119.009 92.9355C119.782 92.4199 120.62 92.1621 121.522 92.1621C122.933 92.1621 124.05 92.6455 124.874 93.6123C125.705 94.5719 126.12 95.8861 126.12 97.5547V98.2744H117.827V98.5215C117.827 99.8392 118.203 100.938 118.955 101.819C119.714 102.693 120.667 103.13 121.812 103.13C122.5 103.13 123.105 103.005 123.628 102.754C124.158 102.503 124.638 102.102 125.067 101.551L125.873 102.163C124.928 103.531 123.556 104.215 121.759 104.215ZM121.522 93.2578C120.556 93.2578 119.739 93.6123 119.073 94.3213C118.414 95.0303 118.013 95.9827 117.87 97.1787H124.842V97.0391C124.806 95.9219 124.487 95.0124 123.886 94.3105C123.284 93.6087 122.496 93.2578 121.522 93.2578ZM129.848 92.377L129.891 94.3643C130.327 93.6481 130.872 93.1038 131.523 92.7314C132.175 92.3519 132.895 92.1621 133.683 92.1621C134.929 92.1621 135.856 92.513 136.465 93.2148C137.074 93.9167 137.382 94.9694 137.389 96.373V104H136.11V96.3623C136.103 95.3239 135.881 94.5505 135.444 94.042C135.015 93.5335 134.324 93.2793 133.371 93.2793C132.576 93.2793 131.871 93.5299 131.255 94.0312C130.646 94.5254 130.195 95.195 129.901 96.04V104H128.623V92.377H129.848ZM142.717 89.4014V92.377H145.123V93.4297H142.717V101.175C142.717 101.819 142.831 102.299 143.061 102.614C143.297 102.929 143.687 103.087 144.231 103.087C144.446 103.087 144.794 103.051 145.273 102.979L145.327 104.032C144.991 104.154 144.532 104.215 143.952 104.215C143.071 104.215 142.43 103.961 142.029 103.452C141.628 102.937 141.428 102.181 141.428 101.186V93.4297H139.29V92.377H141.428V89.4014H142.717ZM157.638 104.215C156.649 104.215 155.754 103.971 154.952 103.484C154.157 102.997 153.538 102.321 153.094 101.454C152.65 100.58 152.428 99.6029 152.428 98.5215V98.0596C152.428 96.9424 152.643 95.9362 153.072 95.041C153.509 94.1458 154.114 93.444 154.888 92.9355C155.661 92.4199 156.499 92.1621 157.401 92.1621C158.812 92.1621 159.929 92.6455 160.753 93.6123C161.584 94.5719 161.999 95.8861 161.999 97.5547V98.2744H153.706V98.5215C153.706 99.8392 154.082 100.938 154.834 101.819C155.593 102.693 156.546 103.13 157.691 103.13C158.379 103.13 158.984 103.005 159.507 102.754C160.037 102.503 160.517 102.102 160.946 101.551L161.752 102.163C160.807 103.531 159.435 104.215 157.638 104.215ZM157.401 93.2578C156.435 93.2578 155.618 93.6123 154.952 94.3213C154.293 95.0303 153.892 95.9827 153.749 97.1787H160.721V97.0391C160.685 95.9219 160.366 95.0124 159.765 94.3105C159.163 93.6087 158.375 93.2578 157.401 93.2578ZM168.154 97.0928L171.291 92.377H172.816L168.874 98.0811L172.988 104H171.474L168.165 99.0801L164.856 104H163.342L167.445 98.0811L163.503 92.377H165.018L168.154 97.0928ZM176.479 94.3428C176.902 93.6481 177.443 93.111 178.102 92.7314C178.76 92.3519 179.48 92.1621 180.261 92.1621C181.507 92.1621 182.434 92.513 183.043 93.2148C183.652 93.9167 183.96 94.9694 183.967 96.373V104H182.688V96.3623C182.681 95.3239 182.459 94.5505 182.022 94.042C181.593 93.5335 180.902 93.2793 179.949 93.2793C179.154 93.2793 178.449 93.5299 177.833 94.0312C177.224 94.5254 176.773 95.195 176.479 96.04V104H175.201V87.5H176.479V94.3428ZM188.715 104H187.426V92.377H188.715V104ZM187.2 89.0146C187.2 88.7712 187.279 88.5671 187.437 88.4023C187.594 88.2305 187.809 88.1445 188.081 88.1445C188.353 88.1445 188.568 88.2305 188.726 88.4023C188.89 88.5671 188.973 88.7712 188.973 89.0146C188.973 89.2581 188.89 89.4622 188.726 89.627C188.568 89.7917 188.353 89.874 188.081 89.874C187.809 89.874 187.594 89.7917 187.437 89.627C187.279 89.4622 187.2 89.2581 187.2 89.0146ZM201.573 98.3066C201.573 100.118 201.172 101.558 200.37 102.625C199.568 103.685 198.49 104.215 197.137 104.215C195.518 104.215 194.294 103.613 193.463 102.41L193.409 104H192.206V87.5H193.484V94.0635C194.301 92.7959 195.511 92.1621 197.115 92.1621C198.49 92.1621 199.575 92.6885 200.37 93.7412C201.172 94.7868 201.573 96.2441 201.573 98.1133V98.3066ZM200.284 98.0811C200.284 96.5485 199.987 95.3669 199.393 94.5361C198.798 93.6982 197.96 93.2793 196.879 93.2793C196.055 93.2793 195.357 93.4834 194.784 93.8916C194.211 94.2926 193.778 94.8835 193.484 95.6641V100.906C194.129 102.367 195.268 103.098 196.9 103.098C197.96 103.098 198.787 102.679 199.382 101.841C199.983 101.003 200.284 99.7497 200.284 98.0811ZM205.859 104H204.57V92.377H205.859V104ZM204.345 89.0146C204.345 88.7712 204.424 88.5671 204.581 88.4023C204.739 88.2305 204.953 88.1445 205.226 88.1445C205.498 88.1445 205.713 88.2305 205.87 88.4023C206.035 88.5671 206.117 88.7712 206.117 89.0146C206.117 89.2581 206.035 89.4622 205.87 89.627C205.713 89.7917 205.498 89.874 205.226 89.874C204.953 89.874 204.739 89.7917 204.581 89.627C204.424 89.4622 204.345 89.2581 204.345 89.0146ZM211.359 89.4014V92.377H213.766V93.4297H211.359V101.175C211.359 101.819 211.474 102.299 211.703 102.614C211.939 102.929 212.33 103.087 212.874 103.087C213.089 103.087 213.436 103.051 213.916 102.979L213.97 104.032C213.633 104.154 213.175 104.215 212.595 104.215C211.714 104.215 211.073 103.961 210.672 103.452C210.271 102.937 210.07 102.181 210.07 101.186V93.4297H207.933V92.377H210.07V89.4014H211.359ZM217.869 104H216.58V92.377H217.869V104ZM216.354 89.0146C216.354 88.7712 216.433 88.5671 216.591 88.4023C216.748 88.2305 216.963 88.1445 217.235 88.1445C217.507 88.1445 217.722 88.2305 217.88 88.4023C218.045 88.5671 218.127 88.7712 218.127 89.0146C218.127 89.2581 218.045 89.4622 217.88 89.627C217.722 89.7917 217.507 89.874 217.235 89.874C216.963 89.874 216.748 89.7917 216.591 89.627C216.433 89.4622 216.354 89.2581 216.354 89.0146ZM220.662 98.0166C220.662 96.8994 220.877 95.8932 221.307 94.998C221.743 94.1029 222.356 93.4082 223.144 92.9141C223.938 92.4128 224.837 92.1621 225.84 92.1621C227.387 92.1621 228.64 92.7064 229.6 93.7949C230.559 94.8763 231.039 96.3122 231.039 98.1025V98.3711C231.039 99.4954 230.821 100.509 230.384 101.411C229.954 102.306 229.345 102.997 228.558 103.484C227.77 103.971 226.871 104.215 225.861 104.215C224.322 104.215 223.068 103.674 222.102 102.593C221.142 101.504 220.662 100.065 220.662 98.2744V98.0166ZM221.951 98.3711C221.951 99.7604 222.309 100.903 223.025 101.798C223.749 102.686 224.694 103.13 225.861 103.13C227.021 103.13 227.96 102.686 228.676 101.798C229.399 100.903 229.761 99.7246 229.761 98.2637V98.0166C229.761 97.1286 229.596 96.3158 229.267 95.5781C228.937 94.8405 228.475 94.2712 227.881 93.8701C227.286 93.4619 226.606 93.2578 225.84 93.2578C224.694 93.2578 223.759 93.709 223.036 94.6113C222.313 95.5065 221.951 96.681 221.951 98.1348V98.3711ZM234.928 92.377L234.971 94.3643C235.408 93.6481 235.952 93.1038 236.604 92.7314C237.255 92.3519 237.975 92.1621 238.763 92.1621C240.009 92.1621 240.936 92.513 241.545 93.2148C242.154 93.9167 242.462 94.9694 242.469 96.373V104H241.19V96.3623C241.183 95.3239 240.961 94.5505 240.524 94.042C240.095 93.5335 239.404 93.2793 238.451 93.2793C237.656 93.2793 236.951 93.5299 236.335 94.0312C235.726 94.5254 235.275 95.195 234.981 96.04V104H233.703V92.377H234.928Z" fill="white"/>
<circle cx="8.5" cy="95.5" r="7.5" stroke="white" stroke-width="2"/>
<circle cx="8.5" cy="95.5" r="3.5" fill="white"/>
<path d="M16.7617 9.41602H10.6641V26H6.5625V9.41602H0.546875V6.09375H16.7617V9.41602ZM23.0234 26H19.0586V11.207H23.0234V26ZM18.8262 7.37891C18.8262 6.78646 19.0221 6.29883 19.4141 5.91602C19.8151 5.5332 20.3574 5.3418 21.041 5.3418C21.7155 5.3418 22.2533 5.5332 22.6543 5.91602C23.0553 6.29883 23.2559 6.78646 23.2559 7.37891C23.2559 7.98047 23.0508 8.47266 22.6406 8.85547C22.2396 9.23828 21.7064 9.42969 21.041 9.42969C20.3757 9.42969 19.8379 9.23828 19.4277 8.85547C19.0267 8.47266 18.8262 7.98047 18.8262 7.37891ZM32.4434 23.0879C33.1725 23.0879 33.765 22.8874 34.2207 22.4863C34.6764 22.0853 34.9134 21.5521 34.9316 20.8867H38.6367C38.6276 21.8893 38.3542 22.8099 37.8164 23.6484C37.2786 24.4779 36.5404 25.125 35.6016 25.5898C34.6719 26.0456 33.6419 26.2734 32.5117 26.2734C30.3971 26.2734 28.7292 25.6035 27.5078 24.2637C26.2865 22.9147 25.6758 21.0553 25.6758 18.6855V18.4258C25.6758 16.1471 26.2819 14.3288 27.4941 12.9707C28.7064 11.6126 30.3698 10.9336 32.4844 10.9336C34.3346 10.9336 35.8158 11.4622 36.9277 12.5195C38.0488 13.5677 38.6185 14.9668 38.6367 16.7168H34.9316C34.9134 15.9512 34.6764 15.3314 34.2207 14.8574C33.765 14.3743 33.1634 14.1328 32.416 14.1328C31.4954 14.1328 30.7982 14.4701 30.3242 15.1445C29.8594 15.8099 29.627 16.8945 29.627 18.3984V18.8086C29.627 20.3307 29.8594 21.4245 30.3242 22.0898C30.7891 22.7552 31.4954 23.0879 32.4434 23.0879ZM46.2656 20.0664L44.8438 21.4883V26H40.8926V5H44.8438V16.6348L45.6094 15.6504L49.3965 11.207H54.1406L48.7949 17.373L54.6055 26H50.0664L46.2656 20.0664ZM62.3848 26.2734C60.2155 26.2734 58.4473 25.6081 57.0801 24.2773C55.722 22.9466 55.043 21.1738 55.043 18.959V18.5762C55.043 17.0905 55.3301 15.7643 55.9043 14.5977C56.4785 13.4219 57.2897 12.5195 58.3379 11.8906C59.3952 11.2526 60.5983 10.9336 61.9473 10.9336C63.9707 10.9336 65.5612 11.5716 66.7188 12.8477C67.8854 14.1237 68.4688 15.9329 68.4688 18.2754V19.8887H59.0488C59.1764 20.8548 59.5592 21.6296 60.1973 22.2129C60.8444 22.7962 61.6602 23.0879 62.6445 23.0879C64.1667 23.0879 65.3561 22.5365 66.2129 21.4336L68.1543 23.6074C67.5618 24.446 66.7598 25.1022 65.748 25.5762C64.7363 26.041 63.6152 26.2734 62.3848 26.2734ZM61.9336 14.1328C61.1497 14.1328 60.5117 14.3971 60.0195 14.9258C59.5365 15.4544 59.2266 16.2109 59.0898 17.1953H64.5859V16.8809C64.5677 16.0059 64.3307 15.3314 63.875 14.8574C63.4193 14.3743 62.7721 14.1328 61.9336 14.1328ZM75.4551 7.57031V11.207H77.9844V14.1055H75.4551V21.4883C75.4551 22.0352 75.5599 22.4271 75.7695 22.6641C75.9792 22.901 76.3802 23.0195 76.9727 23.0195C77.4102 23.0195 77.7975 22.9876 78.1348 22.9238V25.918C77.36 26.1549 76.5625 26.2734 75.7422 26.2734C72.9714 26.2734 71.5586 24.8743 71.5039 22.0762V14.1055H69.3438V11.207H71.5039V7.57031H75.4551ZM101.582 9.41602H95.4844V26H91.3828V9.41602H85.3672V6.09375H101.582V9.41602ZM108.076 20.4082L110.811 11.207H115.049L109.102 28.2969L108.773 29.0762C107.889 31.0085 106.431 31.9746 104.398 31.9746C103.824 31.9746 103.241 31.888 102.648 31.7148V28.7207L103.25 28.7344C103.997 28.7344 104.553 28.6204 104.918 28.3926C105.292 28.1647 105.583 27.7865 105.793 27.2578L106.258 26.041L101.076 11.207H105.328L108.076 20.4082ZM129.924 18.7402C129.924 21.0189 129.404 22.8464 128.365 24.2227C127.335 25.5898 125.941 26.2734 124.182 26.2734C122.687 26.2734 121.479 25.7539 120.559 24.7148V31.6875H116.607V11.207H120.271L120.408 12.6562C121.365 11.5078 122.614 10.9336 124.154 10.9336C125.977 10.9336 127.395 11.6081 128.406 12.957C129.418 14.306 129.924 16.1654 129.924 18.5352V18.7402ZM125.973 18.4531C125.973 17.0768 125.727 16.015 125.234 15.2676C124.751 14.5202 124.045 14.1465 123.115 14.1465C121.876 14.1465 121.023 14.6204 120.559 15.5684V21.625C121.042 22.6003 121.903 23.0879 123.143 23.0879C125.029 23.0879 125.973 21.543 125.973 18.4531ZM139.193 26.2734C137.024 26.2734 135.256 25.6081 133.889 24.2773C132.531 22.9466 131.852 21.1738 131.852 18.959V18.5762C131.852 17.0905 132.139 15.7643 132.713 14.5977C133.287 13.4219 134.098 12.5195 135.146 11.8906C136.204 11.2526 137.407 10.9336 138.756 10.9336C140.779 10.9336 142.37 11.5716 143.527 12.8477C144.694 14.1237 145.277 15.9329 145.277 18.2754V19.8887H135.857C135.985 20.8548 136.368 21.6296 137.006 22.2129C137.653 22.7962 138.469 23.0879 139.453 23.0879C140.975 23.0879 142.165 22.5365 143.021 21.4336L144.963 23.6074C144.37 24.446 143.568 25.1022 142.557 25.5762C141.545 26.041 140.424 26.2734 139.193 26.2734ZM138.742 14.1328C137.958 14.1328 137.32 14.3971 136.828 14.9258C136.345 15.4544 136.035 16.2109 135.898 17.1953H141.395V16.8809C141.376 16.0059 141.139 15.3314 140.684 14.8574C140.228 14.3743 139.581 14.1328 138.742 14.1328Z" fill="white"/>
</svg>
